#define close_width  12
#define close_height 12
static unsigned char close_bits[] = {
 0xf0,0xf0,0xfc,0xf3,0xfe,0xf7,0x1e,0xf6,0x3f,0xfe,0x77,0xfe,
 0xe7,0xfe,0xc7,0xff,0x86,0xf7,0xfe,0xf7,0xfc,0xf3,0xf0,0xf0};
