#define desk_width  10
#define desk_height 10
static unsigned char desk_bits[] = {
 0x20,0xfc,0x60,0xfc,0xe0,0xfc,0xe0,0xfd,0xe0,0xff,0xe0,0xff,
 0xe0,0xfd,0xe0,0xfc,0x60,0xfc,0x20,0xfc};
