#define close_width  18
#define close_height 18
static unsigned char close_bits[] = {
 0xff,0xff,0xff,0xff,0xff,0xff,0xff,0xff,0xff,0xff,0xff,0xff,
 0xff,0xff,0xff,0x9f,0xe7,0xff,0x1f,0xe3,0xff,0x3f,0xf0,0xff,
 0x7f,0xf8,0xff,0x7f,0xf8,0xff,0x3f,0xf0,0xff,0x1f,0xe3,0xff,
 0x9f,0xe7,0xff,0xff,0xff,0xff,0xff,0xff,0xff,0xff,0xff,0xff,
 0xff,0xff,0xff,0xff,0xff,0xff};
