#define max_width  14
#define max_height 14
static unsigned char max_bits[] = {
 0x00,0xc0,0x00,0xc0,0xe0,0xcf,0xc0,0xcf,0x80,0xcf,0x04,0xcf,
 0x0c,0xce,0x1c,0xcc,0x3c,0xc8,0x7c,0xc0,0xfc,0xc0,0xfc,0xc1,
 0x00,0xc0,0x00,0xc0};
